<?xml version="1.0"?>
<svg xmlns="http://www.w3.org/2000/svg" id="Layer_1" data-name="Layer 1" viewBox="0 0 128 128" width="512px" height="512px"><g><path d="M64,37.61a1.751,1.751,0,0,0,1.75-1.75V22.776a1.75,1.75,0,1,0-3.5,0V35.86A1.751,1.751,0,0,0,64,37.61Z" data-original="#000000" class="active-path" data-old_color="#000000" fill="#000000"/><path d="M73.781,41.662a1.745,1.745,0,0,0,1.238-.513L84.27,31.9A1.75,1.75,0,0,0,81.8,29.423l-9.252,9.251a1.751,1.751,0,0,0,1.237,2.988Z" data-original="#000000" class="active-path" data-old_color="#000000" fill="#000000"/><path d="M52.981,41.149a1.75,1.75,0,1,0,2.475-2.475L46.2,29.423A1.75,1.75,0,1,0,43.729,31.9Z" data-original="#000000" class="active-path" data-old_color="#000000" fill="#000000"/><path d="M111.773,55.568a7.679,7.679,0,0,0-7.007-2.085h0a7.63,7.63,0,0,0-5.7,9.7.42.42,0,0,1-.142.477l-6.87,4.98L87.1,57.444a1.751,1.751,0,0,0-2.849-.519l-8.838,9-5.588-9.174a.472.472,0,0,1,.107-.557,8.2,8.2,0,1,0-11.828.042.418.418,0,0,1,.069.512l-5.589,9.177-8.838-9a1.75,1.75,0,0,0-2.849.519l-4.947,11.2-6.87-4.979a.424.424,0,0,1-.143-.479,7.63,7.63,0,0,0-5.7-9.7,7.643,7.643,0,1,0-.659,15.057c.129-.022.287.111.35.278L34.009,98.275v6.949a1.751,1.751,0,0,0,1.75,1.75H92.24a1.75,1.75,0,0,0,1.75-1.75V98.275l11.083-29.457a.4.4,0,0,1,.35-.278,7.743,7.743,0,0,0,2.888-.191,7.6,7.6,0,0,0,5.519-5.764A7.678,7.678,0,0,0,111.773,55.568ZM84.942,61.217,89.15,70.74l-7.493,5.431L77.292,69Zm-41.884,0,7.65,7.788-4.364,7.166L38.85,70.74ZM90.49,103.474H37.509V99.707H90.49Zm19.914-41.6a4.132,4.132,0,0,1-2.965,3.088,4.215,4.215,0,0,1-1.583.107,3.853,3.853,0,0,0-4.058,2.519L91.029,96.207H36.971L26.2,67.586a3.846,3.846,0,0,0-4.059-2.519,4.211,4.211,0,0,1-1.582-.108,4.144,4.144,0,1,1,5.068-5.1,4.041,4.041,0,0,1-.032,2.282,3.926,3.926,0,0,0,1.431,4.352l8.629,6.254.011.008,10.157,7.362a1.75,1.75,0,0,0,2.522-.507L61.164,58.565a3.923,3.923,0,0,0-.543-4.766,4.7,4.7,0,1,1,6.78-.025,3.971,3.971,0,0,0-.563,4.794L79.653,79.611a1.751,1.751,0,0,0,2.523.507l10.158-7.363.007,0,8.632-6.256a3.923,3.923,0,0,0,1.429-4.351,4.054,4.054,0,0,1-.032-2.283,4.142,4.142,0,0,1,8.034,2.011Z" data-original="#000000" class="active-path" data-old_color="#000000" fill="#000000"/><path d="M65.472,72.592a1.751,1.751,0,0,0-2.943,0l-5.422,8.421a1.752,1.752,0,0,0,0,1.895l5.421,8.421a1.751,1.751,0,0,0,2.944,0l5.421-8.421a1.752,1.752,0,0,0,0-1.895ZM64,87.149,60.66,81.96,64,76.773l3.34,5.187Z" data-original="#000000" class="active-path" data-old_color="#000000" fill="#000000"/></g> </svg>
